<?xml version="1.0" standalone="no"?>
<!DOCTYPE svg PUBLIC "-//W3C//DTD SVG 20010904//EN"
 "http://www.w3.org/TR/2001/REC-SVG-20010904/DTD/svg10.dtd">
<svg version="1.0" xmlns="http://www.w3.org/2000/svg"
 width="730.000000pt" height="730.000000pt" viewBox="0 0 730.000000 730.000000"
 preserveAspectRatio="xMidYMid meet">
<metadata>
Created by potrace 1.14, written by Peter Selinger 2001-2017
</metadata>
<g transform="translate(0.000000,730.000000) scale(0.100000,-0.100000)"
fill="#000000" stroke="none">
<path d="M3428 7295 c-2 -1 -45 -6 -96 -9 -51 -4 -101 -9 -110 -11 -9 -1 -39
-6 -67 -9 -75 -10 -101 -15 -210 -36 -55 -11 -109 -22 -120 -24 -16 -3 -84
-21 -150 -40 -5 -1 -30 -8 -55 -15 -332 -92 -748 -291 -1055 -506 -404 -281
-753 -650 -1015 -1070 -116 -185 -260 -479 -322 -655 -92 -263 -150 -480 -174
-650 -2 -19 -7 -44 -9 -56 -44 -205 -55 -722 -20 -994 5 -42 26 -179 30 -201
2 -9 6 -32 9 -50 3 -19 8 -43 10 -54 90 -413 208 -720 429 -1115 41 -75 189
-291 263 -386 134 -173 339 -390 473 -504 30 -25 59 -50 65 -56 70 -65 301
-231 441 -316 260 -158 472 -256 778 -358 64 -22 127 -42 140 -44 12 -3 57
-14 100 -25 84 -22 203 -48 264 -57 21 -3 49 -7 62 -9 13 -2 45 -7 70 -11 25
-4 54 -8 63 -10 103 -18 597 -26 743 -11 166 17 170 17 343 48 190 33 541 131
656 184 17 7 71 30 119 49 269 110 587 300 842 503 537 428 946 1005 1175
1661 44 126 117 400 127 472 2 19 8 49 13 65 5 17 11 53 15 80 3 28 8 64 10
80 35 219 41 743 10 915 -2 14 -7 46 -9 72 -15 123 -55 321 -95 468 -72 266
-210 601 -344 836 -47 84 -163 266 -179 284 -10 11 -18 22 -18 25 0 3 -30 45
-66 93 -271 357 -621 676 -992 905 -344 213 -757 380 -1141 462 -9 2 -47 10
-86 19 -38 8 -92 17 -120 20 -27 4 -60 8 -72 10 -12 3 -53 8 -90 11 -37 4 -77
9 -88 12 -22 5 -541 13 -547 8z"/>
</g>
</svg>
